<svg width="468" height="80"><g><path xmlns="http://www.w3.org/2000/svg" d="M65.654 32.82c.064.007.167-.113.187-.306a.47.47 0 0 0-.042-.261c-.023-.045-.053-.074-.08-.076-.065-.004-.167.113-.186.306-.02.192.06.33.121.337zM65.258 31.595c.01-.047-.02-.092-.04-.116a.408.408 0 0 0-.292-.122c-.05 0-.098.01-.138.028-.027.013-.074.04-.085.088-.017.079.082.193.241.227.159.035.297-.026.314-.105zM48.6 17.322c.148-.23.25-.548.286-.898.075-.706-.152-1.264-.404-1.29l-.02-.001c-.25 0-.572.49-.645 1.178-.037.35-.004.683.093.938.08.212.193.34.312.353.12.013.256-.09.378-.28zM49.028 20.642c.188.142.363.193.47.14.107-.055.17-.228.167-.463-.003-.287-.097-.627-.264-.958-.168-.331-.386-.609-.615-.782-.139-.104-.271-.16-.374-.16a.215.215 0 0 0-.097.021c-.107.055-.17.227-.167.461.003.287.097.627.264.959.168.332.386.61.616.782zM51.055 24.203c.135-.057.224-.246.241-.52.021-.322-.055-.712-.215-1.096-.3-.718-.768-1.138-1.066-1.138a.259.259 0 0 0-.102.02c-.135.057-.224.246-.241.52-.021.322.055.712.215 1.096.337.806.884 1.235 1.168 1.118zM50.25 13.1a.368.368 0 0 0-.263-.093c-.23 0-.524.142-.761.389-.346.36-.462.835-.253 1.035.21.2.678.065 1.024-.297.345-.36.461-.834.252-1.034zM51.81 13.012c.423-.089.674-.363.634-.553-.031-.153-.254-.28-.558-.28-.077 0-.159.008-.244.026-.423.089-.675.363-.634.553.026.125.16.195.236.224.157.062.364.072.566.03zM54.013 12.452a1.07 1.07 0 0 0-.444-.107c-.17 0-.298.056-.34.145-.034.073-.014.176.056.284.087.134.24.259.417.342.178.083.371.12.53.102.127-.016.22-.066.254-.14.034-.073.014-.176-.056-.284a1.023 1.023 0 0 0-.417-.342zM54.95 16.918c-.094 0-.198.029-.293.08-.211.118-.332.335-.26.467.073.131.323.142.533.025a.597.597 0 0 0 .25-.253c.021-.047.05-.136.01-.213-.043-.075-.134-.097-.186-.103a.414.414 0 0 0-.053-.003zM55.459 15.802a.637.637 0 0 0 .046.388c.027.053.087.145.192.163.1.018.192-.047.235-.088a.63.63 0 0 0 .177-.348.637.637 0 0 0-.047-.388c-.026-.053-.087-.145-.191-.164a.193.193 0 0 0-.037-.003.307.307 0 0 0-.199.091.638.638 0 0 0-.176.349zM55.291 13.671a.362.362 0 0 0-.138-.034.118.118 0 0 0-.07.019c-.04.03-.058.106-.045.203a.95.95 0 0 0 .189.431c.103.14.235.25.36.305.09.04.168.045.208.014.04-.03.057-.106.045-.203a.956.956 0 0 0-.189-.431.954.954 0 0 0-.36-.304zM53.905 15.64c.02-.018.03-.058.025-.108a.476.476 0 0 0-.109-.241.47.47 0 0 0-.214-.156.214.214 0 0 0-.063-.01.079.079 0 0 0-.048.012c-.02.018-.03.057-.025.108a.476.476 0 0 0 .11.24c.123.151.275.193.324.154zM51.925 16.007a.083.083 0 0 0-.032.005c-.074.03-.124.212-.035.426.09.213.254.306.327.275.05-.021.07-.093.076-.123a.536.536 0 0 0-.04-.303c-.078-.187-.214-.28-.296-.28zM52.629 15c-.06 0-.132.02-.2.063a.37.37 0 0 0-.15.174c-.011.028-.024.082.001.123.027.04.081.05.11.053.07.004.15-.018.222-.063.137-.088.19-.23.148-.297-.021-.034-.07-.053-.131-.053zM53.013 17.71c.222.103.433.055.483-.054.05-.109-.047-.302-.268-.405a.585.585 0 0 0-.243-.058c-.117 0-.21.045-.24.11-.05.11.046.302.268.407zM16.768 17.25c-.221.104-.319.298-.268.406.05.108.261.157.483.054.222-.104.319-.297.268-.406-.051-.108-.262-.157-.483-.053zM17.384 15.35c.136.088.287.078.33.01.044-.068-.01-.21-.147-.297a.38.38 0 0 0-.2-.064h-.02c-.031.003-.086.013-.111.054-.027.04-.013.094-.003.123.025.065.08.129.15.174zM18.137 16.438c.09-.214.04-.395-.035-.426a.083.083 0 0 0-.032-.006c-.081 0-.217.094-.295.28-.09.214-.04.395.035.426.05.02.114-.017.14-.033a.534.534 0 0 0 .187-.241zM16.389 15.135a.475.475 0 0 0-.214.156c-.123.15-.132.31-.084.348.048.039.201-.002.323-.153a.468.468 0 0 0 .11-.241c.004-.05-.005-.09-.026-.108-.019-.016-.06-.017-.11-.002zM14.77 14.291c.213-.287.227-.572.142-.635a.118.118 0 0 0-.07-.019.36.36 0 0 0-.138.034.953.953 0 0 0-.359.304.958.958 0 0 0-.189.431c-.011.098.006.175.046.204.084.063.353-.033.567-.319zM14.125 15.365c-.177.031-.285.284-.238.552a.63.63 0 0 0 .176.348c.044.04.133.107.236.088.176-.03.285-.283.238-.55-.047-.269-.237-.469-.412-.438zM15.066 17.49c.113.063.24.091.347.078.052-.006.143-.028.185-.104.073-.13-.048-.349-.259-.466-.233-.13-.467-.09-.532.026-.073.132.049.349.26.466zM16.293 13.116c.37-.174.547-.47.473-.626-.042-.09-.17-.145-.34-.145-.13 0-.284.033-.444.107-.37.174-.547.47-.473.627.074.157.414.21.784.037zM18.11 12.18c-.304 0-.527.126-.558.279-.04.19.21.465.634.553.203.042.41.032.567-.03.077-.03.21-.099.236-.224.04-.19-.21-.465-.635-.553a1.192 1.192 0 0 0-.244-.026zM20.77 13.397c-.237-.248-.532-.39-.761-.39a.369.369 0 0 0-.262.093c-.209.2-.094.675.252 1.036.347.36.815.497 1.024.296.124-.119.109-.314.089-.419a1.286 1.286 0 0 0-.342-.616zM18.915 22.587c-.16.385-.237.774-.215 1.096.018.274.106.464.242.52.281.12.83-.311 1.166-1.117s.256-1.498-.026-1.616a.25.25 0 0 0-.1-.019c-.125 0-.279.074-.44.213-.244.21-.467.54-.627.923zM21.681 18.44c-.107-.054-.283-.001-.47.14-.23.172-.449.45-.616.781-.338.67-.33 1.302-.097 1.42.234.119.747-.25 1.086-.92.167-.331.261-.672.264-.958.003-.235-.06-.408-.167-.462zM22.086 17.25c.097-.255.13-.588.094-.938-.073-.688-.396-1.178-.646-1.178h-.02c-.118.013-.231.141-.311.353-.098.255-.13.588-.094.938.075.706.414 1.202.665 1.177.119-.012.232-.14.312-.352zM4.28 32.176h-.004c-.027.003-.056.031-.08.076a.47.47 0 0 0-.04.261c.019.193.122.307.186.306.061-.006.14-.144.121-.338a.48.48 0 0 0-.093-.248c-.031-.036-.064-.057-.09-.057zM5.051 31.701a.37.37 0 0 0 .2-.112c.02-.023.052-.068.041-.116-.01-.047-.057-.075-.085-.088a.327.327 0 0 0-.138-.028c-.03 0-.06.003-.09.01a.367.367 0 0 0-.202.112c-.019.023-.05.069-.04.116.017.079.155.141.314.106zM6.243 33.917a.543.543 0 0 0 .194-.264c.083-.23.015-.436-.098-.476-.113-.04-.296.073-.38.303-.082.23-.015.436.098.476.07.026.147-.013.186-.039zM4.413 34.707c.025.083.109.125.158.143a.593.593 0 0 0 .355.003.588.588 0 0 0 .3-.19c.032-.041.082-.122.058-.205-.024-.084-.11-.126-.157-.143a.502.502 0 0 0-.175-.03.666.666 0 0 0-.18.026.593.593 0 0 0-.302.191c-.03.041-.08.121-.057.205zM4.346 29.059c.033-.076.08-.219.008-.326-.05-.077-.16-.121-.3-.121-.156 0-.35.054-.54.178a1.041 1.041 0 0 0-.38.421c-.033.076-.079.219-.008.325.07.108.216.126.302.123.169-.001.365-.067.538-.18.173-.112.311-.265.38-.42zM2.593 30.115a.171.171 0 0 0-.061-.01c-.165 0-.397.198-.52.538-.14.384-.055.718.108.777.165.059.442-.143.581-.528.139-.384.055-.718-.108-.777zM2.106 32.25c-.104.016-.227.273-.175.627a.946.946 0 0 0 .17.438c.061.077.128.12.177.112.05-.007.1-.066.137-.158a.955.955 0 0 0 .04-.469.946.946 0 0 0-.172-.438c-.06-.077-.127-.118-.177-.112zM2.98 34.574a.63.63 0 0 0 .371.122c.06-.002.168-.018.229-.105.102-.146.001-.402-.222-.557a.642.642 0 0 0-.357-.122h-.014c-.06.002-.168.018-.229.105-.102.146 0 .401.222.557zM6.033 27.925c-.245 0-.482.06-.653.165-.091.056-.245.177-.249.349-.006.29.411.543.911.553.493.01.927-.225.934-.514.006-.29-.411-.543-.911-.553h-.032zM9.122 28.99c-.378-.306-.775-.455-1.039-.455-.12 0-.213.03-.263.093-.075.092-.065.264.028.47.112.249.325.508.598.729s.57.374.837.432c.222.047.39.023.466-.07.159-.198-.074-.752-.627-1.199zM11.252 35.736c.159.385.38.714.622.927.207.181.403.252.54.197.135-.056.224-.245.244-.52.023-.321-.052-.71-.21-1.096-.295-.72-.763-1.143-1.06-1.143a.268.268 0 0 0-.101.02c-.283.115-.367.807-.035 1.615zM10.72 31.056c-.136-.14-.275-.217-.383-.217a.19.19 0 0 0-.06.01c-.115.037-.203.198-.235.43-.04.284.001.635.117.988.234.714.689 1.154.935 1.074.248-.082.35-.706.118-1.419-.116-.354-.29-.661-.491-.866zM8.784 51.587c.214.088.394.039.425-.035.03-.074-.06-.238-.274-.328a.573.573 0 0 0-.223-.047c-.106 0-.183.036-.203.082-.02.05.017.115.033.14.05.077.139.144.242.188zM8.136 53.272c.039-.048-.002-.202-.153-.325a.449.449 0 0 0-.267-.111c-.039 0-.068.01-.082.026-.038.048.003.202.153.325.152.123.31.132.35.085zM7.91 51.758c-.002-.03-.012-.085-.052-.11-.042-.027-.095-.013-.123-.003a.37.37 0 0 0-.174.15c-.088.136-.078.288-.01.332.067.042.209-.011.297-.148a.372.372 0 0 0 .063-.221zM9.496 54.023a.588.588 0 0 0-.078.347c.006.051.028.143.103.185.077.041.166.012.213-.01a.593.593 0 0 0 .253-.25c.13-.233.09-.467-.025-.533a.175.175 0 0 0-.085-.02c-.12 0-.279.097-.381.28zM9.965 52.84c.04.022.119.054.188.022.07-.032.094-.113.103-.158a.548.548 0 0 0-.05-.325c-.085-.182-.232-.281-.342-.281a.15.15 0 0 0-.063.013c-.108.05-.157.262-.053.483.05.108.13.198.217.246zM8.3 54.825A.63.63 0 0 0 7.95 55c-.04.044-.107.132-.088.236.031.176.284.284.552.238.267-.047.467-.236.436-.412-.019-.104-.11-.165-.163-.192a.643.643 0 0 0-.389-.046zM4.95 53.38c.083.179.209.33.342.417.108.07.212.09.284.056.073-.035.124-.127.14-.255.019-.158-.018-.35-.102-.53a1.017 1.017 0 0 0-.341-.416.398.398 0 0 0-.207-.073.18.18 0 0 0-.078.017c-.158.073-.211.413-.038.784zM5.256 50.373a.237.237 0 0 0-.04-.004c-.188 0-.43.245-.513.64-.042.201-.032.408.03.565.029.077.098.21.223.237.193.039.466-.211.553-.635.088-.424-.063-.763-.253-.803zM6.472 55.017c.287.214.573.229.636.143.063-.084-.033-.354-.32-.568-.286-.214-.57-.227-.635-.144-.063.086.033.356.32.569zM7 48.761c.025-.104.048-.298-.071-.422a.38.38 0 0 0-.282-.104c-.226 0-.515.128-.753.357-.361.346-.497.815-.297 1.024.2.208.675.093 1.036-.253.185-.178.318-.397.367-.602zM9.084 47.168c-.09 0-.182.005-.275.015-.706.074-1.204.412-1.178.665.028.253.586.479 1.29.404.35-.036.67-.138.9-.286.189-.123.29-.26.278-.378-.012-.118-.14-.232-.352-.312a1.882 1.882 0 0 0-.663-.108zM15.583 49.253a2.63 2.63 0 0 0-.987-.219c-.037 0-.073 0-.109.003-.274.018-.464.107-.52.242-.118.282.312.83 1.117 1.167.385.16.773.237 1.096.215.274-.018.464-.106.52-.242.118-.28-.312-.83-1.117-1.166zM12.358 47.779c-.331-.168-.672-.262-.958-.265h-.014c-.228 0-.395.062-.447.167-.055.108-.003.283.139.47.172.23.45.449.782.616.67.339 1.302.33 1.42.097.054-.107.002-.283-.14-.47-.173-.23-.45-.448-.782-.615zM24.946 65.515c.192-.02.311-.126.305-.187-.005-.054-.116-.124-.278-.124a.52.52 0 0 0-.06.003c-.192.02-.311.125-.305.187.006.061.142.14.338.121zM23.924 64.375c-.006 0-.012 0-.018.002-.047.01-.075.058-.088.086a.369.369 0 0 0-.017.228.367.367 0 0 0 .112.201c.022.02.067.052.115.04.079-.017.141-.154.106-.314-.033-.147-.133-.243-.21-.243zM24.518 63.679a.541.541 0 0 0 .243-.186c.017-.026.055-.09.034-.14-.02-.05-.093-.07-.122-.076a.386.386 0 0 0-.081-.008.6.6 0 0 0-.223.046c-.214.088-.306.253-.276.326.03.074.212.126.425.038zM26.465 66.312c-.155.222-.164.497-.017.6.146.1.402 0 .559-.222.155-.223.164-.497.017-.6-.086-.06-.194-.039-.25-.02a.636.636 0 0 0-.309.242zM27.138 65.256c.083-.024.125-.109.143-.157a.593.593 0 0 0 .003-.355.593.593 0 0 0-.19-.301.278.278 0 0 0-.16-.064.185.185 0 0 0-.045.006c-.083.024-.125.108-.143.157a.593.593 0 0 0-.003.356.593.593 0 0 0 .19.3c.042.032.123.081.205.058zM26.084 63.233a.602.602 0 0 0-.202-.037c-.14 0-.246.056-.274.133-.025.072.013.148.04.186a.543.543 0 0 0 .264.193c.23.084.436.016.476-.096.026-.072-.013-.147-.04-.186a.546.546 0 0 0-.264-.193zM24.84 67.7c.126.05.297.064.469.039a.96.96 0 0 0 .438-.171c.078-.06.12-.127.112-.176-.007-.05-.066-.101-.157-.137a.85.85 0 0 0-.305-.051c-.053 0-.11.004-.164.012a.954.954 0 0 0-.438.171c-.078.061-.12.127-.112.177.007.049.065.1.157.136zM21.223 66.155c.237.363.584.496.747.39.107-.07.122-.22.122-.303-.001-.168-.066-.364-.18-.538-.237-.362-.583-.496-.747-.389-.163.108-.18.479.058.84zM23.61 67.71c.127-.026.214-.085.242-.16.027-.076-.002-.177-.082-.279a1.01 1.01 0 0 0-.445-.302 1.117 1.117 0 0 0-.377-.07.806.806 0 0 0-.16.016c-.126.027-.213.086-.241.161-.06.163.143.441.528.58.185.069.38.088.536.055zM20.91 62.694h-.006c-.287 0-.537.415-.547.91-.005.26.053.504.166.686.056.091.176.244.348.248h.007c.287 0 .536-.414.546-.91.01-.5-.225-.928-.514-.934zM22.62 59.921a.258.258 0 0 0-.163-.049c-.259 0-.68.237-1.035.675-.222.274-.375.571-.432.838-.048.22-.023.39.07.465.196.161.75-.074 1.198-.626.447-.552.56-1.143.363-1.303zM25.12 58.327c-.223 0-.489.04-.767.132-.353.116-.66.29-.865.49-.168.165-.246.331-.209.446.038.114.199.202.431.234.284.04.635-.001.988-.117.713-.234 1.155-.687 1.074-.936-.051-.152-.301-.249-.651-.249zM28.772 57.012a1.464 1.464 0 0 0-.118-.004c-.297 0-.64.074-.978.214-.808.332-1.24.878-1.124 1.161.116.283.808.367 1.615.035.385-.158.714-.378.927-.622.18-.206.253-.403.197-.538-.056-.137-.245-.226-.519-.246zM41.829 58.418c.806.33 1.499.248 1.615-.035.116-.283-.316-.83-1.124-1.162a2.649 2.649 0 0 0-.978-.214c-.04 0-.08.002-.118.004-.274.02-.463.11-.52.245-.055.135.017.332.198.538.212.245.542.466.927.624zM45.298 59.511c.352.116.704.158.987.118.233-.033.394-.12.432-.235.081-.248-.36-.701-1.074-.936a2.516 2.516 0 0 0-.767-.131c-.35 0-.602.097-.651.248-.038.114.04.28.208.445.205.201.512.375.865.491zM49.007 61.385c-.058-.267-.212-.564-.433-.838-.354-.437-.776-.675-1.034-.675a.256.256 0 0 0-.165.05c-.091.074-.117.243-.07.464.058.267.212.564.433.838.446.551 1.001.786 1.199.626.092-.075.118-.244.07-.465zM49.125 64.538c.172-.004.292-.157.348-.248a1.27 1.27 0 0 0 .166-.685 1.284 1.284 0 0 0-.195-.678c-.06-.088-.183-.233-.352-.233h-.006c-.29.006-.525.434-.514.933.005.256.076.504.194.678.06.088.184.233.353.233h.006zM47.048 66.9c-.12 0-.25.023-.376.069a1.01 1.01 0 0 0-.446.302c-.08.102-.11.203-.082.279.06.162.393.248.777.108a1.01 1.01 0 0 0 .446-.303c.08-.1.109-.202.082-.277-.028-.076-.116-.135-.24-.161a.703.703 0 0 0-.161-.017zM48.084 65.704a1.03 1.03 0 0 0-.18.538c0 .083.015.232.122.302.163.106.51-.026.747-.389.237-.361.22-.733.058-.84a.238.238 0 0 0-.133-.036c-.18 0-.43.144-.614.425zM44.6 67.204c-.267 0-.45.1-.463.188-.007.049.035.115.112.176a.946.946 0 0 0 .438.17c.226.034.448-.001.565-.09.026-.019.058-.048.062-.085.007-.05-.035-.115-.112-.176a.95.95 0 0 0-.438-.172 1.254 1.254 0 0 0-.165-.011zM44.084 63.71a.546.546 0 0 0 .264-.195c.026-.038.066-.113.04-.186a.185.185 0 0 0-.1-.098.503.503 0 0 0-.375.002.543.543 0 0 0-.265.194c-.026.039-.065.113-.04.186.04.112.246.18.476.096zM43.252 64.898c.073-.257-.018-.476-.146-.513a.175.175 0 0 0-.045-.006c-.135 0-.29.156-.35.365a.587.587 0 0 0 .003.355c.018.048.06.133.143.157.084.023.164-.026.205-.057a.593.593 0 0 0 .19-.301zM43.297 66.93c.057.02.164.041.25-.019.148-.102.14-.377-.016-.6a.64.64 0 0 0-.308-.241.385.385 0 0 0-.115-.02.227.227 0 0 0-.135.04c-.086.06-.103.17-.104.229-.004.12.04.256.121.37.081.117.193.204.307.242zM45.024 65.204a.45.45 0 0 0-.204.044c-.044.024-.073.053-.075.08-.006.061.113.167.306.186a.479.479 0 0 0 .262-.04c.044-.024.073-.055.075-.081.002-.026-.019-.061-.057-.093a.47.47 0 0 0-.307-.096zM45.626 63.315a.597.597 0 0 0-.222-.046.391.391 0 0 0-.08.008c-.03.006-.102.025-.123.076-.012.03-.003.067.008.092.03.071.116.17.269.233a.545.545 0 0 0 .303.039c.03-.006.102-.026.122-.076.03-.073-.062-.237-.277-.326zM45.968 64.933c.047.011.093-.021.116-.04a.371.371 0 0 0 .112-.202c.035-.158-.028-.297-.106-.314a.077.077 0 0 0-.019-.002.157.157 0 0 0-.096.043.371.371 0 0 0-.112.2.368.368 0 0 0 .018.229c.012.028.04.075.087.086zM58.918 48.152c.142-.188.193-.363.139-.47-.053-.106-.22-.168-.448-.168h-.014c-.287.003-.628.097-.959.265-.33.168-.609.385-.781.615-.141.187-.193.363-.139.47.053.105.22.168.448.168h.014c.287-.003.628-.098.959-.265.332-.168.609-.386.781-.615zM55.403 49.033c-.277 0-.621.067-.99.22-.384.16-.712.383-.923.628-.18.208-.25.404-.194.54.057.135.246.224.52.242.321.02.711-.055 1.096-.216.806-.336 1.236-.885 1.117-1.166-.064-.154-.297-.248-.626-.248zM61.074 48.252c.707.073 1.264-.152 1.29-.404.027-.253-.47-.59-1.177-.665a2.565 2.565 0 0 0-.275-.015 1.9 1.9 0 0 0-.663.107c-.211.08-.34.194-.352.312-.013.118.09.256.279.378.23.149.548.25.898.287zM65.04 51.81c.19-.04.341-.379.253-.803-.082-.393-.325-.638-.512-.638a.246.246 0 0 0-.042.004c-.125.026-.194.16-.224.236-.06.157-.071.364-.028.566.088.424.36.675.553.635zM64.307 53.712c.026.07.064.117.113.14.072.034.176.015.284-.055.134-.087.259-.238.342-.417.173-.37.12-.71-.037-.784a.183.183 0 0 0-.078-.017.398.398 0 0 0-.207.073 1.01 1.01 0 0 0-.342.417c-.107.229-.136.475-.075.643zM64.102 48.592c-.24-.229-.528-.357-.753-.357a.38.38 0 0 0-.283.104c-.119.125-.095.319-.07.423.048.204.182.424.367.601.36.346.834.461 1.035.253.2-.21.065-.678-.296-1.024zM63.207 54.593a.96.96 0 0 0-.304.36c-.04.09-.045.167-.016.208.063.084.349.07.636-.143.286-.214.382-.483.319-.568-.023-.03-.075-.048-.145-.048-.123-.001-.306.054-.49.191zM61.582 55.475c.139.025.28.007.388-.047.053-.026.144-.087.163-.19.019-.105-.047-.193-.088-.237a.63.63 0 0 0-.348-.176.779.779 0 0 0-.126-.011c-.217 0-.4.101-.426.249-.03.176.169.365.437.412zM60.262 54.546c.046.021.136.05.212.01.075-.042.097-.134.103-.185a.592.592 0 0 0-.077-.348c-.095-.169-.253-.28-.38-.28a.18.18 0 0 0-.086.02c-.13.073-.143.322-.025.533a.591.591 0 0 0 .253.25zM60.248 52.594c.103-.222.054-.432-.054-.483a.15.15 0 0 0-.063-.013c-.11 0-.257.098-.342.281a.548.548 0 0 0-.05.325c.008.045.034.127.103.158.069.033.148 0 .189-.022a.541.541 0 0 0 .217-.246zM61.486 51.26c-.02-.047-.096-.083-.203-.083a.594.594 0 0 0-.223.047c-.214.09-.305.254-.274.328.03.074.212.123.425.035.214-.09.306-.254.275-.328zM62.436 51.794a.37.37 0 0 0-.175-.149.211.211 0 0 0-.066-.013.103.103 0 0 0-.056.015c-.03.02-.043.054-.049.079a.35.35 0 0 0 .059.252c.087.137.228.19.297.148.067-.043.077-.194-.01-.332zM61.857 53.162c-.015.048-.014.09.003.11.039.047.198.038.348-.084.151-.123.192-.277.153-.325-.014-.017-.04-.023-.06-.025-.067-.007-.177.019-.289.11a.475.475 0 0 0-.155.214zM63.56 33.653c.083.23.265.343.38.303.112-.041.179-.247.096-.476a.546.546 0 0 0-.194-.265.255.255 0 0 0-.136-.048.14.14 0 0 0-.05.009c-.113.042-.18.247-.096.477zM63.82 32.329a.541.541 0 0 0 .185-.243c.088-.214.037-.395-.037-.425-.075-.03-.238.062-.326.276a.542.542 0 0 0-.039.302c.006.03.026.102.076.122.052.023.115-.015.14-.032zM65.07 34.853a.587.587 0 0 0 .355-.003c.048-.018.133-.06.157-.143.023-.084-.026-.165-.058-.205a.594.594 0 0 0-.3-.19.67.67 0 0 0-.181-.026.502.502 0 0 0-.174.029c-.049.017-.133.06-.158.143-.023.083.026.164.058.204a.59.59 0 0 0 .3.19zM67.463 30.105a.17.17 0 0 0-.06.01c-.075.027-.134.115-.16.241-.034.156-.015.351.053.537.067.185.178.348.303.446.1.079.202.11.278.081.076-.027.135-.115.161-.24.034-.156.014-.352-.053-.538-.125-.34-.357-.537-.522-.537zM66.481 28.79c-.362-.236-.733-.22-.84-.057-.107.163.026.51.389.747.173.113.369.179.538.18.079.003.232-.015.302-.123.106-.162-.027-.51-.389-.747zM67.889 32.25h-.012c-.048 0-.109.04-.165.112a.95.95 0 0 0-.17.438.955.955 0 0 0 .038.47c.037.09.087.15.137.157.05.005.115-.035.177-.112a.95.95 0 0 0 .17-.438.955.955 0 0 0-.038-.469c-.036-.092-.087-.15-.137-.158zM66.637 34.034a.64.64 0 0 0-.24.307c-.02.057-.041.164.02.25.102.147.377.139.6-.017.222-.155.323-.411.22-.557-.048-.07-.137-.105-.241-.105a.64.64 0 0 0-.359.122zM64.864 28.439c-.004-.172-.157-.293-.248-.349a1.255 1.255 0 0 0-.652-.165h-.033c-.5.01-.918.263-.911.553.006.29.425.527.933.514.5-.01.917-.264.91-.553zM62.148 29.097c.092-.206.103-.377.028-.47-.075-.092-.244-.118-.465-.07-.267.058-.565.212-.838.433-.552.446-.786 1-.626 1.198.074.092.243.118.465.07.267-.057.565-.211.838-.432s.486-.48.598-.73zM59.837 32.267c.116-.354.157-.704.117-.988-.032-.233-.12-.394-.235-.431-.114-.038-.28.04-.444.208-.201.206-.375.513-.491.865-.234.713-.131 1.337.117 1.419.115.038.281-.04.444-.209.202-.205.376-.512.492-.864zM58.709 34.12a.262.262 0 0 0-.1-.019c-.298 0-.766.423-1.062 1.143-.158.385-.233.775-.21 1.097.02.274.11.463.245.519.135.055.332-.016.538-.197.244-.213.465-.542.622-.927.158-.385.233-.775.21-1.097-.018-.274-.108-.463-.243-.519z"/><path xmlns="http://www.w3.org/2000/svg" d="M63.956 36.573c1.617.397 3.528-.148 4.756-1.355.964-.949 1.42-2.402 1.254-3.99-.2-1.916-1.271-3.712-2.795-4.686-1.487-.95-4.285-1.518-6.914-.518-1.662.632-3.853 2.136-4.86 5.709-1 3.551-4.919 5.139-7.24 4.873a3.851 3.851 0 0 1-.425-.072l-.74-.168.934-.553a7.477 7.477 0 0 0 .765-.671c2.817-2.838 3.187-7.709 2.367-9.99a20.319 20.319 0 0 1-.2-.586c-.462-.067-.984-.582-1.302-1.342-.18-.434-.267-.88-.242-1.257.018-.276.095-.496.222-.647a6.756 6.756 0 0 0-.102-.162c-.011 0-.022.004-.034.004-.183 0-.384-.079-.589-.234-.271-.204-.527-.526-.72-.905-.191-.38-.299-.776-.303-1.116-.003-.337.1-.585.284-.725a4.628 4.628 0 0 1-.02-.257c-.202-.073-.369-.262-.477-.548-.116-.307-.158-.699-.115-1.103.096-.906.55-1.55 1.059-1.497a.563.563 0 0 1 .214.07l.06-.105c-.023-.017-.047-.032-.067-.052-.361-.346-.255-1.023.242-1.541.497-.52 1.168-.654 1.53-.308.066.063.11.14.146.223l.094-.045a.565.565 0 0 1-.08-.188c-.089-.422.311-.852.91-.977.602-.125 1.14.108 1.227.53.008.039.008.077.008.115l.06-.001a.517.517 0 0 1 .044-.16c.172-.369.726-.46 1.26-.21.24.112.442.28.566.47.099.154.14.314.124.462.104.065.206.135.306.212l.012.011c.084.003.172.02.262.06.183.079.361.227.503.418.142.19.233.404.257.602.024.196-.025.363-.13.477.011.074.02.15.025.227.12.062.223.164.291.3.09.177.119.395.08.611a.986.986 0 0 1-.283.548.657.657 0 0 1-.447.188c-.055.097-.113.19-.177.279a.622.622 0 0 1-.05.395.942.942 0 0 1-.4.416.968.968 0 0 1-.468.127.713.713 0 0 1-.31-.069c-.196.057-.394.08-.592.074a.632.632 0 0 1-.474.19.941.941 0 0 1-.397-.091c-.318-.149-.501-.43-.484-.696a2.423 2.423 0 0 1-.238-.262c-.24-.006-.485-.196-.612-.5-.158-.38-.059-.774.227-.894l.007-.001c.03-.122.08-.235.147-.336a.536.536 0 0 1 .034-.231.723.723 0 0 1 .292-.352c.244-.156.525-.156.71-.02.183-.033.354-.025.512.026l.013.005a.547.547 0 0 1 .242.02.83.83 0 0 1 .386.272c.107.13.174.285.188.432a.541.541 0 0 1-.014.183l.007.016c.04.087.097.21.14.276.069-.115.109-.545-.15-1.055-.216-.423-.887-1.345-2.461-.774-.978.355-1.656 1.315-1.727 2.449-.081 1.285.6 2.425 1.821 3.05 1.123.574 2.35.522 3.456-.148 1.423-.864 2.389-2.6 2.403-4.322.01-1.352-.694-2.703-1.933-3.708-1.497-1.213-3.525-1.726-5.29-1.337-1.724.38-4.104 1.957-5.256 4.523-.727 1.621-1.213 4.234.602 7.473 1.88 3.355.025 7.528-2.026 8.816-.52.327-1.317.57-2.108.57-.678 0-1.352-.178-1.848-.633-.732-.67-1.268-2.125.332-5.248.84-1.64.73-3.559-.3-5.264-1.1-1.816-2.99-2.956-4.937-2.974-1.946.018-3.837 1.158-4.936 2.974-1.031 1.704-1.14 3.623-.3 5.264 1.6 3.123 1.064 4.578.332 5.248-.496.455-1.17.633-1.848.633-.792 0-1.587-.243-2.109-.57-2.05-1.288-3.905-5.462-2.025-8.816 1.815-3.239 1.329-5.852.601-7.473-1.15-2.566-3.531-4.144-5.255-4.523-1.766-.389-3.793.124-5.291 1.337-1.24 1.005-1.944 2.356-1.933 3.708.014 1.722.98 3.458 2.403 4.322 1.105.67 2.332.722 3.455.148 1.222-.625 1.903-1.765 1.822-3.051-.07-1.133-.748-2.094-1.726-2.449-1.576-.571-2.245.351-2.46.774-.26.51-.22.943-.153 1.057a2.5 2.5 0 0 0 .148-.293c-.044-.187.013-.42.174-.617a.819.819 0 0 1 .386-.271.544.544 0 0 1 .242-.02l.013-.006c.158-.05.33-.059.514-.026a.53.53 0 0 1 .267-.098.72.72 0 0 1 .441.118c.225.144.345.373.326.583.068.101.118.214.148.336l.006.001c.287.12.387.513.228.894a.886.886 0 0 1-.32.402.562.562 0 0 1-.291.096c-.072.093-.153.18-.238.263.017.266-.167.547-.485.696a.944.944 0 0 1-.397.091.635.635 0 0 1-.475-.19c-.2.006-.4-.017-.597-.075a.672.672 0 0 1-.307.07.971.971 0 0 1-.466-.126c-.34-.189-.516-.522-.45-.812a2.588 2.588 0 0 1-.177-.277.656.656 0 0 1-.447-.189.986.986 0 0 1-.284-.547c-.07-.397.093-.768.372-.911.006-.077.014-.153.025-.228a.582.582 0 0 1-.13-.477c.024-.197.115-.411.256-.602.142-.19.32-.339.503-.418a.702.702 0 0 1 .262-.059l.012-.01c.1-.078.202-.147.307-.213-.037-.337.234-.72.69-.932.534-.25 1.087-.158 1.26.21a.529.529 0 0 1 .044.16l.058.001c0-.038 0-.076.008-.114.089-.422.627-.656 1.227-.53.6.125 1 .554.911.976a.566.566 0 0 1-.081.188l.094.045a.654.654 0 0 1 .146-.223c.36-.346 1.033-.212 1.53.307.227.237.381.52.435.796.058.305-.01.57-.193.746-.021.02-.044.035-.067.052l.06.104a.563.563 0 0 1 .213-.07c.509-.054.963.59 1.059 1.497.042.405.002.797-.115 1.103-.109.286-.275.475-.477.549a5.49 5.49 0 0 1-.02.255c.184.14.287.389.283.725-.004.341-.11.737-.303 1.117-.355.7-.875 1.138-1.307 1.138-.012 0-.024-.003-.035-.004l-.102.163c.3.366.306 1.122-.019 1.903-.317.761-.84 1.275-1.302 1.343-.06.187-.126.382-.2.586-.82 2.28-.449 7.152 2.367 9.99.251.253.521.488.801.698l.916.522-.757.173c-.084.02-.17.036-.259.049-2.418.376-6.403-1.29-7.407-4.851-1.006-3.574-3.197-5.077-4.859-5.71-2.629-1-5.427-.432-6.914.518-1.523.974-2.594 2.77-2.794 4.688-.167 1.586.291 3.04 1.254 3.988 1.228 1.208 3.139 1.753 4.755 1.356 1.255-.308 2.16-1.138 2.548-2.338.422-1.305.097-2.593-.869-3.445-.85-.75-2.01-.951-2.952-.51-1.519.71-1.34 1.836-1.193 2.287.177.545.511.822.64.855-.016-.078-.063-.205-.097-.297l-.005-.014c-.164-.1-.288-.306-.314-.56a.831.831 0 0 1 .081-.465.545.545 0 0 1 .157-.186c.003-.004.003-.009.005-.013.076-.147.191-.274.345-.381a.52.52 0 0 1 .12-.259.726.726 0 0 1 .395-.228.732.732 0 0 1 .455.042.547.547 0 0 1 .187.139c.12.024.235.068.342.133.003 0 .004-.002.006-.003.287-.118.636.088.793.471.124.303.084.61-.08.783.016.117.02.236.019.356.2.176.269.505.15.834a.896.896 0 0 1-.33.44.601.601 0 0 1-.337.108l-.019-.002c-.136.147-.294.271-.476.37a.685.685 0 0 1-.101.192.943.943 0 0 1-.485.314c-.093.027-.188.04-.28.04a.878.878 0 0 1-.298-.05.624.624 0 0 1-.314-.246 2.54 2.54 0 0 1-.325-.073.653.653 0 0 1-.445.185H3.34a.995.995 0 0 1-.562-.186c-.33-.231-.478-.608-.381-.907a2.978 2.978 0 0 1-.142-.176c-.156-.005-.31-.092-.432-.248a1.299 1.299 0 0 1-.244-.608c-.054-.365.033-.691.203-.876a3.957 3.957 0 0 1 .068-.384c-.263-.213-.342-.675-.171-1.148.2-.554.657-.881 1.039-.742.053.02.1.048.144.083l.043-.042c-.027-.027-.054-.053-.076-.086-.119-.182-.126-.425-.019-.667.098-.218.279-.423.511-.575.513-.335 1.1-.315 1.336.046.037.057.06.123.075.19l.1-.034a.67.67 0 0 1-.055-.261c.005-.254.154-.482.418-.646.24-.148.557-.224.881-.218.718.015 1.272.419 1.262.919 0 .029-.01.056-.013.084l.121.033a.565.565 0 0 1 .1-.201c.321-.397 1.098-.264 1.807.31.644.52.938 1.17.746 1.582.056.063.11.127.164.192.23-.034.482.077.72.32.237.243.442.6.574 1.003.251.767.18 1.457-.148 1.75l.043.189c.471.047 1.01.576 1.332 1.36.18.434.263.882.236 1.258-.019.26-.089.47-.203.62.089.173.178.353.27.547 1.034 2.193 4.74 5.375 8.737 5.39a6.98 6.98 0 0 0 1.078-.074l.85-.16-.358.57a.429.429 0 0 1-.07.143c-1.395 1.96-5.478 3.654-8.699 1.85-3.238-1.815-5.851-1.329-7.473-.601-2.566 1.15-4.143 3.53-4.522 5.255-.389 1.766.124 3.793 1.338 5.29.996 1.23 2.335 1.933 3.677 1.933h.03c1.722-.014 3.458-.98 4.321-2.403.67-1.106.723-2.333.149-3.455-.625-1.222-1.763-1.902-3.05-1.822-1.134.07-2.095.748-2.45 1.727-.57 1.576.352 2.246.775 2.46.51.26.942.22 1.056.152a2.5 2.5 0 0 0-.29-.147.518.518 0 0 1-.127.016.798.798 0 0 1-.492-.191c-.219-.178-.324-.422-.292-.627l-.005-.013a1.065 1.065 0 0 1-.027-.513c-.135-.184-.135-.466.021-.71a.723.723 0 0 1 .352-.292.539.539 0 0 1 .232-.033c.1-.067.213-.117.335-.148l.001-.007c.12-.286.512-.387.894-.227.302.126.49.372.498.61.093.072.18.153.264.24.266-.017.548.166.696.483.083.177.11.37.077.544a.597.597 0 0 1-.176.326c.007.2-.016.399-.074.596.104.215.093.506-.058.776a.942.942 0 0 1-.416.4.655.655 0 0 1-.276.065.555.555 0 0 1-.12-.015 2.725 2.725 0 0 1-.28.178c0 .338-.305.655-.732.73-.063.011-.125.017-.185.017-.324 0-.605-.153-.725-.388a3.072 3.072 0 0 1-.228-.025.545.545 0 0 1-.378.134c-.217 0-.47-.088-.702-.261-.296-.22-.466-.512-.476-.764l-.012-.013a3.785 3.785 0 0 1-.212-.307c-.02.003-.039.007-.059.007a.742.742 0 0 1-.402-.13 1.354 1.354 0 0 1-.472-.566c-.25-.534-.157-1.088.21-1.26a.517.517 0 0 1 .16-.045l.001-.054a.57.57 0 0 1-.114-.012c-.213-.044-.39-.212-.484-.458a1.38 1.38 0 0 1-.046-.769c.125-.599.553-1 .977-.911a.57.57 0 0 1 .188.08l.043-.09a.666.666 0 0 1-.221-.15c-.346-.36-.211-1.033.307-1.53.519-.497 1.196-.603 1.542-.242.019.02.032.046.049.069.036-.021.073-.043.11-.063a.57.57 0 0 1-.072-.212c-.054-.508.59-.963 1.496-1.058.405-.043.797-.002 1.103.114.286.109.475.275.549.477.086.005.17.012.255.02.137-.18.38-.283.707-.283h.02c.34.004.736.111 1.115.303s.701.448.906.72c.164.218.24.432.23.624l.16.102c.152-.127.371-.205.647-.223.374-.026.823.062 1.257.243.762.318 1.28.84 1.347 1.303.186.06.38.125.581.198 2.283.82 7.153.45 9.99-2.366.237-.236.459-.487.658-.748l.414-.791.252.87c.024.104.041.194.055.287.366 2.413-1.303 6.395-4.853 7.395-3.573 1.007-5.077 3.199-5.709 4.86-1 2.628-.432 5.426.518 6.913.974 1.524 2.77 2.595 4.687 2.796 1.587.166 3.04-.292 3.989-1.255 1.207-1.226 1.752-3.137 1.356-4.755-.308-1.255-1.138-2.16-2.339-2.548-1.305-.422-2.593-.097-3.444.87-.751.85-.952 2.01-.51 2.951.71 1.518 1.835 1.34 2.286 1.193.545-.177.823-.512.855-.64-.078.016-.205.063-.297.096l-.015.006c-.1.163-.305.287-.56.313a1.01 1.01 0 0 1-.095.005c-.239 0-.443-.094-.551-.242l-.016-.006a1.07 1.07 0 0 1-.38-.342.527.527 0 0 1-.26-.122.728.728 0 0 1-.229-.396.726.726 0 0 1 .043-.455.547.547 0 0 1 .14-.187c.023-.12.068-.235.132-.343 0-.002-.002-.003-.003-.005-.118-.288.089-.637.471-.794a.887.887 0 0 1 .512-.058c.11.022.2.071.271.138.117-.015.236-.02.356-.018.177-.2.506-.269.835-.15.184.067.34.184.44.33a.6.6 0 0 1 .105.355c.147.137.272.295.371.477a.668.668 0 0 1 .192.102.94.94 0 0 1 .314.485.94.94 0 0 1-.01.577.624.624 0 0 1-.245.314 2.551 2.551 0 0 1-.074.326c.24.24.247.68-.001 1.034-.184.263-.463.412-.72.412a.602.602 0 0 1-.186-.03c-.059.05-.119.098-.18.143-.006.154-.09.306-.245.428-.157.123-.373.21-.607.244-.074.01-.147.016-.218.016-.157 0-.307-.025-.434-.076a.718.718 0 0 1-.227-.143h-.016a3.957 3.957 0 0 1-.366-.068.716.716 0 0 1-.414.239 1.113 1.113 0 0 1-.237.024c-.16 0-.33-.03-.497-.09-.554-.202-.88-.658-.742-1.04a.505.505 0 0 1 .083-.145l-.041-.043c-.028.028-.054.056-.086.077a.596.596 0 0 1-.33.095c-.315 0-.669-.216-.912-.588-.335-.512-.315-1.099.046-1.335a.564.564 0 0 1 .19-.076l-.035-.098a.661.661 0 0 1-.247.055h-.014c-.254-.006-.482-.154-.646-.418a1.631 1.631 0 0 1-.218-.881c.015-.711.411-1.262.904-1.262h.014c.03.001.056.01.084.013.01-.04.02-.079.032-.119a.562.562 0 0 1-.2-.102c-.203-.166-.273-.457-.194-.82.07-.32.248-.67.504-.986.521-.644 1.17-.938 1.583-.747a6.25 6.25 0 0 1 .191-.163c-.033-.23.077-.483.32-.72.243-.238.6-.442 1.003-.575.767-.25 1.457-.18 1.75.148l.19-.043c.047-.472.577-1.01 1.359-1.333.436-.179.882-.26 1.258-.236.26.02.47.09.62.203.173-.088.354-.178.547-.27 1.478-.696 3.548-2.747 4.645-5.321.037-.088.073-.176.108-.265l.278-.701.403.992c1.098 2.56 3.163 4.603 4.634 5.296.193.091.374.182.547.27.15-.114.36-.184.62-.203.375-.025.823.057 1.258.236.782.322 1.312.861 1.359 1.332.062.015.125.03.19.044.292-.328.983-.4 1.75-.148.847.279 1.393.82 1.323 1.294.064.053.128.108.19.163.413-.191 1.063.103 1.584.747.256.315.435.666.504.987.078.363.01.654-.195.819a.568.568 0 0 1-.2.102l.033.12c.028-.004.055-.014.083-.014h.015c.247 0 .478.139.649.39.158.234.249.544.256.872.007.328-.071.64-.219.88-.163.265-.393.413-.645.418h-.015a.664.664 0 0 1-.248-.054l-.034.098a.564.564 0 0 1 .19.075c.36.236.381.824.046 1.336-.244.371-.597.587-.912.587a.592.592 0 0 1-.331-.096c-.032-.02-.058-.049-.086-.076l-.04.043a.544.544 0 0 1 .082.144c.07.195.02.421-.137.621-.14.179-.355.328-.605.419-.17.061-.34.09-.497.09-.278 0-.515-.094-.652-.262-.12.027-.24.05-.365.066h-.013c-.016.016-.032.032-.05.046-.152.113-.372.174-.613.174-.072 0-.144-.006-.219-.016a1.302 1.302 0 0 1-.607-.244c-.156-.122-.239-.275-.245-.43a2.77 2.77 0 0 1-.179-.142.607.607 0 0 1-.192.031.73.73 0 0 1-.226-.037.982.982 0 0 1-.489-.376.982.982 0 0 1-.187-.588.65.65 0 0 1 .186-.444 2.691 2.691 0 0 1-.074-.326.624.624 0 0 1-.245-.315.94.94 0 0 1-.01-.577c.084-.297.283-.512.508-.59a1.89 1.89 0 0 1 .37-.474.6.6 0 0 1 .105-.355.89.89 0 0 1 .44-.33.854.854 0 0 1 .65.01.587.587 0 0 1 .187.14c.12-.002.238.003.355.019a.551.551 0 0 1 .271-.138.881.881 0 0 1 .511.058c.383.157.59.506.471.793 0 .002-.002.004-.003.005.065.108.11.223.133.342.162.135.24.382.182.643a.725.725 0 0 1-.228.396.523.523 0 0 1-.26.122 1.063 1.063 0 0 1-.38.342c-.004.003-.008.004-.012.005a.543.543 0 0 1-.185.157.792.792 0 0 1-.465.081c-.254-.026-.459-.15-.559-.313l-.015-.006a2.585 2.585 0 0 0-.294-.096c.031.13.308.463.853.64.45.145 1.576.323 2.287-1.194.44-.942.24-2.101-.511-2.952-.852-.966-2.14-1.29-3.445-.869-1.2.388-2.03 1.293-2.339 2.548-.396 1.617.149 3.528 1.356 4.755.948.964 2.404 1.42 3.989 1.255 1.917-.2 3.712-1.272 4.686-2.795.951-1.487 1.52-4.286.519-6.914-.632-1.661-2.136-3.852-5.71-4.859-3.537-.996-5.127-4.904-4.875-7.224.018-.153.042-.301.074-.442l.017-.055.32-.731.391.766c.184.234.386.46.6.672 2.838 2.815 7.708 3.186 9.99 2.366.201-.073.392-.137.578-.196.024-.187.123-.385.294-.582.246-.285.622-.542 1.056-.723.78-.326 1.537-.32 1.903-.02.054-.032.107-.066.162-.102-.011-.191.066-.406.23-.624.205-.272.527-.528.906-.72s.775-.3 1.116-.303c.338-.013.586.097.725.284.085-.01.17-.017.256-.021.073-.202.262-.369.549-.477.306-.116.699-.156 1.102-.114.907.095 1.55.55 1.496 1.058a.56.56 0 0 1-.072.213c.037.02.074.042.11.063.018-.023.03-.049.05-.069.346-.36 1.022-.255 1.541.242.519.497.653 1.17.307 1.53a.666.666 0 0 1-.221.15c.014.03.03.06.043.091a.57.57 0 0 1 .188-.082c.421-.087.852.312.977.912.126.6-.108 1.139-.53 1.227a.57.57 0 0 1-.114.011v.055c.056.007.11.02.16.044.369.173.46.726.21 1.26-.112.241-.28.443-.47.566a.749.749 0 0 1-.403.13c-.02 0-.04-.004-.059-.006a3.785 3.785 0 0 1-.212.307l-.012.013c-.01.252-.18.543-.476.764-.233.173-.485.261-.702.261a.548.548 0 0 1-.378-.135c-.075.012-.15.02-.227.025a.668.668 0 0 1-.3.292.94.94 0 0 1-.422.096c-.063 0-.126-.005-.189-.016-.426-.075-.73-.392-.73-.73a2.73 2.73 0 0 1-.282-.178.554.554 0 0 1-.12.015.652.652 0 0 1-.275-.064.942.942 0 0 1-.417-.4c-.15-.27-.161-.561-.057-.776a1.884 1.884 0 0 1-.074-.596.597.597 0 0 1-.176-.326.895.895 0 0 1 .077-.544c.149-.318.43-.502.697-.484.083-.087.17-.167.263-.238.007-.24.196-.485.498-.611.38-.159.774-.06.894.227l.001.006c.124.03.237.08.34.15a.545.545 0 0 1 .227.032c.14.052.264.155.352.292.157.244.156.526.02.71.033.184.025.355-.026.514l-.005.013c.032.205-.073.45-.292.627a.798.798 0 0 1-.492.192.513.513 0 0 1-.126-.017.093.093 0 0 0-.013.007c-.087.04-.21.097-.276.14.115.069.545.108 1.055-.15.423-.216 1.346-.886.774-2.461-.355-.978-1.315-1.656-2.449-1.727-1.286-.077-2.425.6-3.05 1.821-.575 1.123-.522 2.35.147 3.455.864 1.425 2.6 2.39 4.322 2.404 1.354.019 2.704-.694 3.707-1.933 1.214-1.497 1.727-3.524 1.338-5.29-.38-1.724-1.957-4.104-4.523-5.256-1.622-.727-4.235-1.213-7.473.602-3.238 1.814-7.13.15-8.581-1.694a3.797 3.797 0 0 1-.235-.332l-.428-.682 1.053.317c.327.043.661.065.992.063 3.998-.015 7.703-3.197 8.737-5.39.091-.194.181-.375.27-.548-.114-.15-.185-.36-.203-.62-.027-.376.057-.822.236-1.258.322-.782.86-1.311 1.331-1.359.015-.062.03-.125.044-.19-.328-.293-.4-.983-.148-1.75.132-.403.337-.76.575-1.003.237-.243.49-.353.72-.32.052-.064.107-.128.163-.191-.192-.413.102-1.062.746-1.583.316-.256.667-.435.988-.504.363-.078.654-.01.819.195.047.059.078.127.1.2l.12-.032c-.003-.028-.012-.056-.013-.084-.01-.5.543-.904 1.261-.92.328-.004.641.071.881.219.265.163.413.392.418.645a.653.653 0 0 1-.054.262l.098.034a.566.566 0 0 1 .076-.19c.237-.36.824-.381 1.335-.046.512.335.728.882.493 1.242-.021.032-.05.06-.077.087.014.014.03.027.043.041a.544.544 0 0 1 .145-.082c.382-.14.838.188 1.04.742.09.25.113.51.066.733a.712.712 0 0 1-.239.414 4.004 4.004 0 0 1 .068.383.71.71 0 0 1 .143.226 1.3 1.3 0 0 1 .06.652c-.034.235-.12.45-.244.607-.122.157-.276.243-.432.248-.044.06-.091.119-.14.176.096.299-.051.676-.382.907a.99.99 0 0 1-.56.185.663.663 0 0 1-.473-.183 2.563 2.563 0 0 1-.327.073.624.624 0 0 1-.314.245.86.86 0 0 1-.298.05c-.092 0-.186-.013-.28-.04a.943.943 0 0 1-.484-.314.665.665 0 0 1-.102-.192 1.909 1.909 0 0 1-.475-.368l-.023.001c-.271 0-.543-.214-.664-.549-.12-.33-.05-.659.15-.835-.002-.12.002-.24.018-.357a.55.55 0 0 1-.138-.271.894.894 0 0 1 .058-.511c.158-.383.505-.59.793-.471l.006.003a1.08 1.08 0 0 1 .342-.133.549.549 0 0 1 .187-.14.722.722 0 0 1 .455-.042c.159.034.3.115.396.228a.518.518 0 0 1 .12.259c.153.107.268.234.344.382.003.004.004.009.006.013a.543.543 0 0 1 .157.185.83.83 0 0 1 .08.465c-.026.254-.148.459-.313.56l-.005.014c-.033.09-.08.217-.096.295.13-.032.462-.31.639-.853.147-.45.324-1.576-1.193-2.287-.943-.44-2.101-.24-2.952.51-.966.852-1.29 2.14-.869 3.446.381 1.201 1.286 2.031 2.541 2.34zM32.58 25.128c-.725 0-1.116-1.144-1.116-2.22s.391-2.218 1.116-2.218 1.116 1.143 1.116 2.219-.391 2.219-1.116 2.219zm4.836 0c-.724 0-1.116-1.144-1.116-2.22s.392-2.218 1.116-2.218 1.117 1.143 1.117 2.219-.392 2.219-1.117 2.219z"/></g><path d="M134.449 14.349q1.827 1.827 2.678 4.096t.725 4.727v.063q-.126 2.9-1.513 5.704t-4.16 5.01-6.806 3.34q2.584 1.829 3.435 4.948t.788 6.713q0 2.08-.19 4.16t-.44 3.907q-.127 1.386-.253 2.52t-.189 2.018v.189h.063q0 1.197.19 2.237t.693 1.796q.504.694 1.26 1.103t1.954.41h.126q.504 0 .914.41t.41.976q0 .505-.41.914t-.914.41h-.126q-2.017-.063-3.309-.788t-2.111-1.985q-.757-1.135-1.072-2.553t-.315-2.93v-.19q.063-1.07.19-2.268t.251-2.584q.252-1.828.441-3.813t.19-3.94q0-2.08-.284-4.002t-1.166-3.403-2.395-2.395-3.97-.914h-.316l-.063-.063h-.126l-.063-.063h-.063l-.063-.063h-.063v-.063q-.063 0-.063-.063h-.063l-.063-.063-.063-.063v-.063q-.063 0-.063-.031t-.063-.032q0-.063-.063-.126l-.063-.126v-.126l-.063-.126v-.567l.063-.063v-.126l.063-.063v-.063h.063v-.064q0-.063.063-.063l.063-.063v-.063l.063-.063q.063 0 .063-.063h.063q0-.063.063-.063.063-.063.126-.063v-.063h.126q0-.063.126-.063h.126v-.063h.189q3.782-.126 6.587-1.134t4.82-2.584q2.27-1.828 3.436-4.097t1.292-4.6v-.127q.063-1.89-.599-3.655t-2.048-3.215q-1.45-1.45-3.593-2.331t-5.105-1.009h-.819q-3.782 0-6.901 1.355t-5.389 3.876q-2.332 2.647-3.655 6.334t-1.45 8.414q0 .19-.032.441t-.031.63q0 .568-.378.946t-.946.378q-.504 0-.913-.378t-.41-.945v-.536l.063-.662q.126-5.168 1.639-9.296t4.16-7.09q2.646-3.026 6.27-4.601t7.973-1.576q.126 0 .284.032t.472.031h.19q3.529.126 6.113 1.23t4.349 2.93zm-11.03 3.403q-.504.441-1.008 1.04t-.82 1.292q-1.323 2.458-2.395 5.704t-2.142 6.775q-1.135 3.719-2.364 7.469t-2.836 6.964-3.687 5.64-4.853 3.498q-.567.19-1.134.347t-1.135.284q-3.34.567-6.24-.82-2.962-1.386-4.159-4.285 0-.063-.032-.063t-.031-.063q-.126-.379-.22-.757t-.221-.819q-.378-2.206.252-4.538v-.063q.378-1.45 1.134-2.647t1.765-2.206q2.08-2.017 4.6-2.458 1.45-.252 3.026.126.504.126.756.63t.126 1.009-.63.788-1.008.157q-.82-.252-1.828-.063-1.765.315-3.214 1.765-1.576 1.45-2.143 3.592v.063q-.504 1.64-.19 3.404.064.504.316 1.071v.063q.882 2.017 2.836 2.9 2.143 1.008 4.664.567.441-.126.882-.22t.883-.285q2.332-.882 4.128-3.088t3.214-5.2 2.584-6.491 2.238-7.027q1.071-3.656 2.205-6.996t2.458-5.987q.505-.883 1.135-1.67t1.323-1.482q1.513-1.26 3.278-1.638.567-.126 1.008.22t.567.914q.126.504-.22.945t-.914.568q-1.009.189-1.954 1.071zm38.193 24.013q.505.252.694.756t-.063 1.008l-.063.19q-.883 2.016-1.986 4.285t-2.49 4.223-3.119 3.246-3.813 1.292h-.126q-1.26 0-2.143-.504t-1.386-1.324q-.379-.567-.568-1.26t-.315-1.387q-1.386 1.954-3.088 3.214t-3.845 1.26h-.063q-1.26 0-2.142-.503t-1.45-1.324q-.504-.756-.693-1.639t-.19-1.827v-.19q0-1.45.694-3.907.315-1.134.662-2.395t.85-2.584q.253-.693.694-2.017t1.134-3.151q.82-2.206 1.733-4.695t1.797-4.885q.189-.504.693-.725t1.008-.031.725.693.032 1.008q-1.009 2.774-1.891 5.263t-1.576 4.317q-.63 1.702-1.103 3.025t-.724 2.017q-.505 1.324-.851 2.521t-.662 2.27q-.252 1.07-.41 1.89t-.157 1.45v.126q0 .567.094 1.103t.347.913q.441.63 1.45.63 1.449 0 2.741-1.134t2.427-2.836 2.11-3.718 1.734-3.782v-.063q.063-.063.063-.189.252-.693.725-2.017t1.103-3.151q.882-2.206 1.765-4.695t1.764-4.885q.19-.504.694-.725t1.008-.031.756.693.063 1.008q-1.071 2.774-1.954 5.263t-1.575 4.317q-.63 1.702-1.072 3.025t-.756 2.017v.063q0 .063-.031.126t-.032.126q-.441 1.26-.788 2.395t-.598 2.08q-.568 2.08-.568 3.34v.127q0 .567.095 1.103t.346.913q.442.63 1.387.63h.063q1.45 0 2.742-1.134t2.426-2.836 2.08-3.718 1.702-3.782l.126-.189q.189-.504.724-.725t1.04.032zm14.244-6.177q1.324 2.27 2.458 4.664t1.198 5.231v.126q-.063 2.836-1.103 4.916t-2.679 3.467-3.687 2.048-4.065.725h-.063q-.19 0-.347-.032t-.283-.031q-2.017-.126-3.624-.914t-2.805-2.048q-1.134-1.261-1.765-2.868t-.63-3.309v-.567q.126-1.765.788-3.372t1.86-2.868q1.07-1.197 2.583-1.859t3.34-.725q1.135 0 2.27.504t2.016 1.45q.757.82 1.23 1.954t.535 2.458q0 .567-.378.945t-.946.378-.945-.378-.378-.945q-.063-1.576-1.072-2.647-.945-1.072-2.268-1.072-1.26 0-2.27.473t-1.764 1.292q-.882.882-1.355 2.111t-.599 2.49v.378q0 2.521 1.702 4.349.82.882 1.985 1.45t2.616.693q.189.063.504.063h.063q1.576-.063 3.151-.568t2.9-1.575q1.26-1.072 2.016-2.647t.82-3.782v-.063q-.064-2.269-1.072-4.412t-2.206-4.16q-.315-.503-.536-.913t-.535-.914q-.694.693-1.26 1.45-.379.44-.915.472t-.977-.346q-.44-.315-.472-.851t.283-.977q1.009-1.198 2.08-2.269l.063-.063q-.567-1.324-.82-2.71t0-2.836q.064-.82.505-1.765 0-.063.032-.063t.031-.063q.378-.82 1.072-1.513.567-.567 1.323-.882.756-.378 1.513-.378 1.386.126 2.206 1.071.693.694.819 2.206 0 .441-.063.883t-.19.882q-.125.504-.283.945t-.346.883q-.505 1.134-1.198 2.08t-1.45 1.827q.316.63.694 1.23t.693 1.291zm-2.52-5.294q.377-.504.724-1.071t.662-1.198q.126-.315.252-.662t.189-.661q.189-.63.126-1.135 0-.44-.126-.504 0-.063-.19-.063-.125-.063-.44.063-.379.252-.568.441-.315.315-.504.757l-.063.063q-.252.567-.315 1.071-.19 1.45.252 2.9zm26.785 5.294q1.323 2.27 2.458 4.664t1.197 5.231v.126q-.063 2.836-1.103 4.916t-2.678 3.467-3.687 2.048-4.065.725h-.063q-.19 0-.347-.032t-.284-.031q-2.016-.126-3.624-.914t-2.804-2.048q-1.135-1.261-1.765-2.868t-.63-3.309v-.567q.126-1.765.788-3.372t1.859-2.868q1.071-1.197 2.584-1.859t3.34-.725q1.135 0 2.27.504t2.016 1.45q.756.82 1.229 1.954t.536 2.458q0 .567-.378.945t-.946.378-.945-.378-.378-.945q-.063-1.576-1.072-2.647-.945-1.072-2.269-1.072-1.26 0-2.269.473t-1.764 1.292q-.883.882-1.355 2.111t-.6 2.49v.378q0 2.521 1.703 4.349.819.882 1.985 1.45t2.615.693q.19.063.505.063h.063q1.575-.063 3.15-.568t2.9-1.575q1.26-1.072 2.017-2.647t.82-3.782v-.063q-.064-2.269-1.072-4.412t-2.206-4.16q-.315-.503-.536-.913t-.536-.914q-.693.693-1.26 1.45-.378.44-.914.472t-.977-.346q-.441-.315-.472-.851t.283-.977q1.009-1.198 2.08-2.269l.063-.063q-.567-1.324-.82-2.71t0-2.836q.064-.82.505-1.765 0-.063.031-.063t.032-.063q.378-.82 1.071-1.513.568-.567 1.324-.882.756-.378 1.512-.378 1.387.126 2.206 1.071.694.694.82 2.206 0 .441-.063.883t-.19.882q-.125.504-.283.945t-.347.883q-.504 1.134-1.197 2.08t-1.45 1.827q.315.63.694 1.23t.693 1.291zm-2.521-5.294q.378-.504.725-1.071t.661-1.198q.126-.315.252-.662t.19-.661q.189-.63.126-1.135 0-.44-.126-.504 0-.063-.19-.063-.126-.063-.44.063-.379.252-.568.441-.315.315-.504.757l-.063.063q-.252.567-.315 1.071-.19 1.45.252 2.9zm35.42 11.47q.504.253.693.757t0 1.008q-1.828 4.034-3.97 6.587t-4.538 4.065-4.853 2.08-4.853.44h-.189q-1.702-.125-3.183-.63t-2.552-1.575q-1.135-1.072-1.765-2.647t-.567-3.719v-.189q.063-1.26.315-2.584t.63-2.71q0-.063.032-.063t.031-.063q.63-2.143 1.513-4.034 1.071-2.458 2.49-4.663t2.93-3.845q1.45-1.45 3.088-2.206 1.639-.882 3.34-.882 2.143 0 3.404.945 1.386.882 1.827 2.647.19.693.127 1.513t-.316 1.638q-.378 1.261-1.166 2.427t-1.859 2.048q-1.26 1.072-2.741 1.891t-3.057 1.513q-2.206.945-4.16 1.575t-3.088.946q-.315 1.071-.473 2.08t-.22 1.953v.126q-.063 2.962 1.512 4.349.694.693 1.734 1.071t2.3.442h.126q2.017.063 4.128-.41t4.128-1.733 3.94-3.561 3.497-5.893q.252-.504.757-.693t1.008 0zm-20.861-2.205q-.126.378-.284.725t-.284.724q1.072-.315 2.395-.787t2.773-1.166q1.387-.63 2.742-1.387t2.427-1.639q1.638-1.323 2.205-3.214.316-1.008.126-1.765-.189-.693-.693-1.008-.693-.504-1.954-.504-1.071 0-2.205.567-.568.315-1.166.756t-1.103 1.009q-1.387 1.45-2.679 3.466t-2.3 4.223zm34.096 2.206q.504.252.694.756t-.064 1.008q-1.008 2.143-1.953 3.908t-1.891 3.214q-1.954 2.962-4.097 4.538-1.134.756-2.395 1.135-1.26.44-2.647.44h-.063q-.945 0-1.796-.346t-1.481-1.04q-1.324-1.45-1.324-3.907v-.189q0-1.513.694-3.908.315-1.134.693-2.395t.82-2.584q1.26-3.782 2.646-7.658t2.773-7.846l1.387-4.034.378-1.071q.315-.82.693-1.954t.883-2.584q.189-.504.693-.725t1.009-.094q.504.189.756.693t.063 1.008l-.851 2.427q-.41 1.167-.725 2.048-.126.315-.189.567t-.189.568l-1.387 4.033q-1.323 3.782-2.678 7.595t-2.742 7.846q-.44 1.324-.787 2.553t-.662 2.3q-.315 1.009-.473 1.86t-.158 1.418v.126q0 1.45.63 2.08.442.567 1.324.567h.063q.757 0 1.828-.315.945-.316 1.702-.82.882-.63 1.701-1.575t1.702-2.206q.882-1.324 1.765-3.026t1.828-3.781q.252-.504.787-.693t1.04.063zm13.173 0q.504.252.693.756t-.063 1.008q-1.009 2.143-1.954 3.908t-1.89 3.214q-1.955 2.962-4.097 4.538-1.135.756-2.395 1.135-1.26.44-2.647.44h-.063q-.946 0-1.797-.346t-1.48-1.04q-1.324-1.45-1.324-3.907v-.189q0-1.513.693-3.908.315-1.134.693-2.395t.82-2.584q1.26-3.782 2.647-7.658t2.773-7.846l1.386-4.034.378-1.071q.316-.82.694-1.954t.882-2.584q.19-.504.693-.725t1.009-.094q.504.189.756.693t.063 1.008l-.85 2.427q-.41 1.167-.726 2.048-.126.315-.189.567t-.189.568l-1.386 4.033q-1.324 3.782-2.679 7.595t-2.741 7.846q-.442 1.324-.788 2.553t-.662 2.3q-.315 1.009-.473 1.86t-.157 1.418v.126q0 1.45.63 2.08.441.567 1.324.567h.063q.756 0 1.827-.315.946-.316 1.702-.82.882-.63 1.702-1.575t1.701-2.206q.883-1.324 1.765-3.026t1.828-3.781q.252-.504.788-.693t1.04.063zm63.718-30.126q.504.189.725.693t.031 1.008q-.063.19-.346.977t-.725 2.049-1.009 2.867-1.197 3.435q-1.071 2.962-2.174 6.208t-2.08 6.05-1.67 4.79-.883 2.427q-.945 2.647-2.017 5.578t-1.953 5.703v.063q-.883 2.71-1.45 4.853t-.63 3.215v.189q0 1.197.22 2.237t.725 1.796q.504.694 1.26 1.103t1.955.41h.126q.504 0 .913.41t.41.976q-.063.505-.441.914t-.945.41h-.127q-1.953-.063-3.245-.788t-2.112-1.985q-.756-1.135-1.071-2.553t-.315-2.93v-.19q0-1.323.63-3.686t1.513-5.2l.063-.063q.882-2.836 1.953-5.798t2.017-5.546q.252-.82 1.072-2.963h-16.26q-.253.694-.442 1.292t-.378 1.23q-1.198 3.718-2.521 7.247t-3.246 6.24-4.727 4.348-6.964 1.576h-.504q-2.521-.126-4.444-1.103t-3.308-2.49q-2.774-3.214-2.647-7.751v-.505q.126-2.836 1.292-5.01t2.867-3.813q2.08-2.017 4.633-2.994t4.821-1.04q.567 0 .945.41t.378.914q0 .567-.378.977t-.945.41q-1.828 0-3.876.819t-3.75 2.395q-1.387 1.323-2.3 3.088t-1.04 3.97v.442q0 3.529 2.016 5.924 1.009 1.134 2.49 1.86t3.372.85h.44q3.404.063 5.736-1.418t3.97-3.97 2.837-5.673T292.705 40q.126-.441.283-.882t.284-.82h-2.647q-.567 0-.945-.41t-.379-.913q0-.567.379-.977t.945-.41h3.53q.252-.693.504-1.544t.567-1.733q1.071-3.403 2.458-7.374t3.214-7.374l.19-.378q-2.018-.504-3.877-1.04t-3.624-1.04q-3.025-.945-5.924-1.702t-6.114-.756q-1.512 0-2.962.662t-2.584 1.796q-1.197 1.071-1.89 2.521t-.82 2.9q-.063 1.134.126 2.048t.504 1.67q.757 1.638 2.332 2.458 1.576.882 3.719 1.008 1.512.126 3.151-.252t3.214-1.071q.504-.253 1.009-.063t.756.693.063 1.008-.693.757q-3.845 1.764-7.626 1.575-2.773-.126-4.916-1.323-1.072-.63-1.954-1.513t-1.45-2.143q-1.071-2.143-.882-4.979.126-2.017 1.071-3.907t2.458-3.34q1.45-1.45 3.372-2.301T281.55 10q3.53 0 6.586.756t6.272 1.765q1.953.63 4.033 1.229t4.412 1.04l.567-.567q1.513-1.45 3.466-2.458 1.198-.63 1.828.567.252.504.063 1.008t-.693.757q-.756.44-1.45.914t-1.386 1.102l-.473.473-.41.536q-.693.756-1.134 1.702-1.702 3.214-3.057 7.058t-2.426 7.248q-.378 1.324-.756 2.458h16.323q1.071-3.025 2.332-6.712t2.521-7.09q.63-1.828 1.197-3.467t1.009-2.899.725-2.048.346-.977q.19-.504.694-.725t1.008-.031zm20.672 30.126q.504.252.694.756t0 1.008q-1.828 4.034-3.971 6.587t-4.538 4.065-4.853 2.08-4.853.44h-.189q-1.701-.125-3.183-.63t-2.552-1.575q-1.135-1.072-1.765-2.647t-.567-3.719v-.189q.063-1.26.315-2.584t.63-2.71q0-.063.032-.063t.031-.063q.63-2.143 1.513-4.034 1.071-2.458 2.49-4.663t2.93-3.845q1.45-1.45 3.088-2.206 1.639-.882 3.34-.882 2.144 0 3.404.945 1.387.882 1.828 2.647.189.693.126 1.513t-.315 1.638q-.378 1.261-1.166 2.427t-1.86 2.048q-1.26 1.072-2.741 1.891t-3.057 1.513q-2.206.945-4.16 1.575t-3.088.946q-.315 1.071-.472 2.08t-.221 1.953v.126q-.063 2.962 1.513 4.349.693.693 1.733 1.071t2.3.442h.126q2.017.063 4.128-.41t4.129-1.733 3.939-3.561 3.498-5.893q.252-.504.756-.693t1.008 0zm-20.861-2.206q-.126.378-.284.725t-.283.724q1.071-.315 2.395-.787t2.773-1.166q1.386-.63 2.741-1.387t2.427-1.639q1.638-1.323 2.206-3.214.315-1.008.126-1.765-.19-.693-.694-1.008-.693-.504-1.953-.504-1.072 0-2.206.567-.567.315-1.166.756t-1.103 1.009q-1.387 1.45-2.679 3.466t-2.3 4.223zm28.298-15.82q-.882 0-1.544-.63t-.662-1.512.662-1.513 1.544-.63 1.513.63.63 1.513-.63 1.512-1.513.63zm4.16 18.026q.504.189.725.725t-.032 1.04q-.882 1.89-1.922 4.096t-2.364 4.16q-1.45 2.143-3.277 3.56t-4.033 1.419h-.063q-1.261 0-2.143-.504t-1.45-1.324q-.504-.756-.693-1.639t-.19-1.827v-.19q0-1.45.694-3.907.315-1.134.662-2.395t.85-2.584q.127-.504.505-1.481t.882-2.427 1.072-3.056 1.197-3.183q.063-.252.19-.63l.314-.946 1.072-2.899q.126-.504.63-.756t1.008-.063q.505.126.757.63t.063 1.008l-1.009 2.963-.567 1.575q-.693 1.954-1.26 3.53t-1.009 2.773-.756 2.143-.567 1.638q-.505 1.324-.851 2.521t-.662 2.27q-.252 1.07-.41 1.89t-.157 1.45v.126q0 .567.094 1.103t.347.913q.441.63 1.387.63h.063q1.45 0 2.71-1.07t2.395-2.71q1.26-1.829 2.237-3.94t1.796-3.939q.252-.504.757-.725t1.008.032zm39.139 0q.504.252.724.756t-.031 1.008l-.063.19q-.883 2.016-1.985 4.285t-2.49 4.223-3.12 3.246-3.813 1.292h-.126q-1.26 0-2.143-.504t-1.45-1.324q-.503-.756-.693-1.639t-.189-1.827v-.19q.126-2.016.757-4.285.315-1.135.693-2.27t.82-2.331q.125-.315.22-.599t.22-.599q.694-1.764 1.45-4.096t.756-4.349q0-1.386-.693-2.332t-2.584-.945q-1.197 0-2.426.977t-2.49 2.49q-1.702 2.079-3.12 4.79t-2.363 5.104q-.441 1.198-.945 2.71t-1.009 2.962q-.378 1.135-.788 2.3t-.724 2.175-.536 1.67-.284.788q-.189.504-.693.756t-1.008.064-.757-.694-.063-1.008q.063-.126.284-.788t.567-1.67.725-2.175.756-2.237l1.639-4.916q0-.063.031-.126t.032-.189q.126-.252.252-.63.315-.883.536-1.513t.283-.882q.567-1.513 1.009-3.215t.44-3.214q0-1.386-.44-2.206-.379-.819-1.198-1.071-.315-.126-.662-.19t-.85-.062q-1.324 0-2.71 1.323t-2.774 3.278q-1.45 2.206-2.773 4.695t-2.395 4.695q0 .126-.126.252-1.512 4.35-2.71 7.721t-1.575 4.443q-.19.568-.694.788t-1.008.095q-.504-.19-.756-.694t-.063-1.008q.189-.567.63-1.796t1.04-2.93 1.323-3.814 1.544-4.38q1.198-3.277 2.521-6.964t2.647-7.406q.19-.504.694-.756t1.008-.063.756.693.063 1.008q-.315.694-.63 1.765 1.387-1.638 2.868-2.615t3.12-.977q1.323 0 2.395.378 1.827.693 2.71 2.395.693 1.386.693 3.025.252-.378.504-.725t.504-.661q1.576-1.954 3.34-3.183t3.656-1.23q3.403 0 4.664 1.702t1.26 4.223q0 2.332-.819 4.916t-1.576 4.475q-.126.315-.22.63t-.158.567q-.882 2.206-1.45 4.35-.314 1.007-.472 1.921t-.158 1.734l-.063.126h.063q0 .567.095 1.103t.347.913q.44.63 1.386.63h.063q1.45 0 2.742-1.134t2.426-2.836 2.08-3.718 1.702-3.782l.063-.189q.252-.504.756-.725t1.009.032zm13.235 0q.504.252.693.756t-.063 1.008q-1.008 2.143-1.954 3.908t-1.89 3.214q-1.954 2.962-4.097 4.538-1.135.756-2.395 1.135-1.26.44-2.647.44h-.063q-.945 0-1.796-.346t-1.481-1.04q-1.324-1.45-1.324-3.907v-.189q0-1.513.693-3.908.315-1.134.694-2.395t.819-2.584q1.26-3.782 2.647-7.658t2.773-7.846l1.387-4.034.378-1.071q.315-.82.693-1.954t.882-2.584q.19-.504.694-.725t1.008-.094q.504.189.756.693t.063 1.008q-.44 1.26-.85 2.427t-.725 2.048q-.126.315-.19.567t-.188.568l-1.387 4.033q-1.323 3.782-2.678 7.595t-2.742 7.846q-.441 1.324-.788 2.553t-.662 2.3q-.315 1.009-.472 1.86t-.158 1.418v.126q0 1.45.63 2.08.442.567 1.324.567h.063q.756 0 1.828-.315.945-.316 1.701-.82.883-.63 1.702-1.575t1.702-2.206q.882-1.324 1.764-3.026t1.828-3.781q.252-.504.788-.693t1.04.063zm7.374-18.025q-.883 0-1.544-.63t-.662-1.513.662-1.513 1.544-.63 1.512.63.63 1.513-.63 1.512-1.512.63zm4.16 18.025q.504.189.724.725t-.031 1.04q-.883 1.89-1.923 4.096t-2.363 4.16q-1.45 2.143-3.277 3.56t-4.034 1.419h-.063q-1.26 0-2.143-.504t-1.45-1.324q-.504-.756-.693-1.639t-.189-1.827v-.19q0-1.45.694-3.907.315-1.134.661-2.395t.851-2.584q.126-.504.504-1.481t.883-2.427 1.071-3.056 1.198-3.183q.063-.252.189-.63l.315-.946 1.071-2.899q.126-.504.63-.756t1.009-.063q.504.126.756.63t.063 1.008l-1.008 2.963-.567 1.575q-.694 1.954-1.26 3.53t-1.01 2.773-.756 2.143-.567 1.638q-.504 1.324-.85 2.521t-.662 2.27q-.253 1.07-.41 1.89t-.158 1.45v.126q0 .567.095 1.103t.347.913q.44.63 1.386.63h.063q1.45 0 2.71-1.07t2.395-2.71q1.26-1.829 2.238-3.94t1.796-3.939q.252-.504.756-.725t1.008.032zm23.13 0q.504.252.693.756t0 1.008q-1.828 4.034-3.97 6.587t-4.538 4.065-4.853 2.08-4.853.44h-.189q-1.702-.125-3.183-.63t-2.553-1.575q-1.134-1.072-1.764-2.647t-.568-3.719v-.189q.126-2.206.788-4.632t1.733-4.822q1.072-2.458 2.49-4.663t2.93-3.845q1.45-1.45 3.089-2.206 1.638-.882 3.277-.882h.315q1.072.063 2.017.472t1.639 1.23q1.386 1.575 1.386 4.285v.378q0 1.198-.504 2.521-.189.63-.504 1.198t-.693 1.134q-.316.441-.851.536t-1.04-.22q-.441-.316-.536-.851t.22-1.04q.568-.63.883-1.639.378-.82.378-1.765v-.252q0-1.765-.756-2.52-.63-.694-1.765-.82h-.189q-.504 0-1.04.157t-1.103.41q-.567.315-1.166.756t-1.103 1.009q-1.386 1.45-2.678 3.466t-2.3 4.223q-.946 2.206-1.545 4.38t-.725 4.128v.126q-.063 2.962 1.513 4.349.693.693 1.733 1.071t2.3.442h.127q2.017.063 4.128-.41t4.128-1.733 3.94-3.561 3.497-5.893q.252-.504.756-.693t1.009 0zm25.147 0q.504.252.693.756t0 1.008l-.126.19q-.882 2.016-1.985 4.285t-2.49 4.223-3.088 3.246-3.845 1.292h-.063q-1.323 0-2.205-.504t-1.387-1.324q-.504-.756-.693-1.639t-.19-1.827v-.19q0-1.008.19-2.08t.504-2.205.693-2.27.82-2.331q.252-.441.44-1.198.694-1.764 1.482-4.096t.788-4.349q0-1.386-.725-2.332t-2.553-.945q-1.197 0-2.458.977t-2.52 2.49q-1.765 2.205-3.247 5.073t-2.426 5.388l-.063.063q-.693 1.828-1.355 3.687t-1.229 3.53-1.071 2.993-.757 2.143q-.189.568-.693.788t-1.008.095q-.505-.19-.757-.694T436.213 55q.252-.756.725-2.048t1.071-2.962 1.26-3.593 1.356-3.813l.063-.063v-.063l.063-.063 1.387-3.908 1.292-3.592 1.071-2.93.788-1.986v-.063q.504-1.387.725-2.08t.472-1.26q.378-1.135.725-2.112t.536-1.607l.378-1.071q.315-.757.693-1.891l.883-2.647q.189-.504.693-.725t1.008-.031.757.693.063 1.008q-.442 1.198-.851 2.395t-.725 2.08q-.126.252-.19.504t-.188.568q-.82 2.457-1.324 3.718l-.819 2.332q1.387-1.387 2.805-2.174t2.93-.788q3.34 0 4.633 1.701t1.292 4.223q0 1.135-.252 2.395t-.6 2.49-.755 2.395-.788 2.11q-.126.316-.22.631t-.221.567q-.883 2.206-1.45 4.35-.315 1.007-.473 1.921t-.157 1.734v.126q0 .567.094 1.103t.347.913q.441.63 1.386.63h.063q1.45 0 2.742-1.134t2.427-2.836 2.11-3.718 1.734-3.782l.063-.189q.252-.504.756-.725t1.009.032z" /></svg>
